<svg width="164" height="51" viewBox="0 0 164 51" fill="none" xmlns="http://www.w3.org/2000/svg">
<path d="M141.605 36.9884C121.656 36.9884 101.705 36.8968 81.7571 36.9884C68.0061 37.0515 54.2964 37.9975 40.5415 37.9427C39.1045 37.937 29.8141 38.6653 29.8141 35.7424C29.8141 29.2649 38.9644 23.0742 43.7597 19.889C52.8693 13.8381 63.0146 9.13966 74.3044 8.86065C78.4626 8.75789 81.2458 8.93169 83.9026 12.201C86.1635 14.9831 87.9229 18.3631 89.5486 21.5062C90.0193 22.4163 91.0473 24.9178 89.718 25.6418C83.8439 28.8413 75.3673 28.8223 68.8278 28.8761C60.8308 28.942 52.8299 28.8761 44.8324 28.8761C39.8741 28.8761 34.8011 29.1902 29.927 28.1603C26.4394 27.4234 24.6159 25.041 27.0476 21.6653C32.9755 13.4359 44.5147 7.88214 54.2047 4.85756C63.4807 1.9622 73.9712 0.308055 83.7897 1.27863C88.3022 1.72471 91.2124 7.91622 93.1338 11.1936C96.4387 16.8308 99.7193 22.856 102.111 28.9026C102.473 29.8191 102.901 31.1827 101.716 31.7393C99.4204 32.817 96.235 32.7459 93.7548 32.9057C88.2806 33.2585 82.7806 33.1916 77.2968 33.1708C69.9932 33.1432 63.3143 32.7489 56.576 29.9365C55.3094 29.4079 53.1885 28.9825 53.1885 27.4446C53.1885 26.6627 53.0301 25.7207 53.1885 24.9526C53.5467 23.2146 55.9787 21.8345 57.3665 21.029C65.0614 16.5625 74.2091 13.6386 82.9146 11.5382C98.9586 7.66727 115.5 6.61854 132.006 6.95189C135.044 7.01324 138.372 6.96455 140.278 9.54993C141.882 11.7258 141.679 18.4852 140.362 20.6578C135.248 29.096 121.485 29.3533 112.641 29.3533C111.758 29.3533 108.576 29.9534 108.576 28.611C108.576 26.6508 108.528 24.6852 108.576 22.7257C108.743 15.8102 114.473 13.2571 121.223 12.1214C131.338 10.4197 145.888 10.2562 153.63 17.6887C158.638 22.4955 162.166 28.9001 162.833 35.6098C163.143 38.7229 163.305 41.2399 160.631 43.4039C156.987 46.3544 150.651 46.778 146.093 46.9563C138.735 47.2442 130.675 47.6844 123.368 46.6912C116.952 45.8191 110.487 42.1125 104.736 39.3743C101.883 38.0158 99.387 36.0146 96.5496 34.6024C91.9779 32.327 86.7139 30.5387 81.8136 28.9822C73.4156 26.3147 62.2548 24.874 59.3144 15.7269C58.3249 12.6489 56.9124 7.33136 61.2904 6.07704C69.2445 3.79818 75.0925 7.28031 78.8777 13.7651C80.4422 16.4455 81.2534 19.5081 82.0394 22.4606C82.6923 24.9132 76.4559 26.4014 74.8973 26.9939C61.1673 32.2128 45.4196 36.9556 30.4916 37.439C26.204 37.5779 20.9696 38.5021 19.0303 34.0192C17.6253 30.7715 17.6747 26.7204 17.6188 23.2559C17.6116 22.809 17.2949 20.8029 17.7317 20.3927C19.9157 18.3417 23.6419 27.0253 23.9705 27.9748C25.9322 33.6431 26.2571 40.3092 26.2571 46.2405C26.2571 47.0356 26.6882 49.0644 25.6078 49.3688C22.0213 50.3792 17.0307 50.1895 13.6666 48.706C5.50829 45.1085 3.15468 34.3161 1.8665 26.7553C1.62582 25.3427 0.406165 21.6581 1.35836 20.7639" stroke="#DAC5FA" stroke-linecap="round" stroke-linejoin="round"/>
</svg>
